<?xml version="1.0" encoding="UTF-8" standalone="no"?><!-- Generator: Gravit.io --><svg xmlns="http://www.w3.org/2000/svg" xmlns:xlink="http://www.w3.org/1999/xlink" style="isolation:isolate" viewBox="0 0 150 150" width="96" height="96"><defs><clipPath id="_clipPath_HBtxZf1Vp9FucrTHoKYivNgj89KmfC5f"><rect width="150" height="150"/></clipPath></defs><g clip-path="url(#_clipPath_HBtxZf1Vp9FucrTHoKYivNgj89KmfC5f)"><path d=" M 6.25 0 L 100 0 L 100 100 L 0 100 L 0 6.25 C 0 2.798 2.798 0 6.25 0 Z  M 100 100 L 150 100 L 150 143.75 C 150 147.202 147.202 150 143.75 150 L 100 150 L 100 100 Z " fill="rgb(74,139,254)"/><path d=" M 100 0 L 143.75 0 C 147.202 0 150 2.798 150 6.25 L 150 100 L 100 100 L 100 0 Z  M 0 100 L 100 100 L 100 150 L 6.25 150 C 2.798 150 0 147.202 0 143.75 L 0 100 Z " fill="rgb(59,213,179)"/></g></svg>
